<svg width="374" height="520" viewBox="0 0 374 520" fill="none" xmlns="http://www.w3.org/2000/svg">
<g filter="url(#filter0_b_429_322)">
<rect x="3" y="1.99023" width="367.923" height="515.093" rx="12.756" fill="url(#paint0_diamond_429_322)" fill-opacity="0.5"/>
<rect x="2.20275" y="1.19299" width="369.518" height="516.687" rx="13.5532" stroke="url(#paint1_radial_429_322)" stroke-width="1.5945"/>
<rect x="2.20275" y="1.19299" width="369.518" height="516.687" rx="13.5532" stroke="url(#paint2_radial_429_322)" stroke-opacity="0.5" stroke-width="1.5945"/>
<rect x="2.20275" y="1.19299" width="369.518" height="516.687" rx="13.5532" stroke="url(#paint3_radial_429_322)" stroke-width="1.5945"/>
</g>
<rect opacity="0.7" x="372.253" y="518.32" width="370.577" height="87.9593" rx="14.0828" transform="rotate(-180 372.253 518.32)" fill="#08121A" stroke="url(#paint4_linear_429_322)" stroke-width="2.65368"/>
<path d="M54.9948 472.158C52.958 472.093 50.9795 472.054 49.0594 472.041V482.199H44.1943V472.041C42.2613 472.054 40.2893 472.093 38.2784 472.158V468.071H54.9948V472.158ZM64.061 482.394C61.0901 482.394 58.9041 481.752 57.5029 480.467C56.1018 479.17 55.4012 477.354 55.4012 475.018C55.4012 472.709 56.0953 470.906 57.4835 469.608C58.8846 468.311 61.0771 467.662 64.061 467.662C67.0579 467.662 69.2505 468.311 70.6386 469.608C72.0398 470.906 72.7403 472.709 72.7403 475.018C72.7403 477.367 72.0463 479.183 70.6581 480.467C69.2699 481.752 67.0709 482.394 64.061 482.394ZM64.061 478.424C65.5011 478.424 66.539 478.151 67.1747 477.607C67.8104 477.049 68.1282 476.186 68.1282 475.018C68.1282 473.877 67.8104 473.027 67.1747 472.469C66.539 471.911 65.5011 471.632 64.061 471.632C62.6339 471.632 61.6026 471.911 60.9668 472.469C60.3311 473.027 60.0133 473.877 60.0133 475.018C60.0133 476.173 60.3311 477.029 60.9668 477.587C61.6026 478.145 62.6339 478.424 64.061 478.424ZM90.6186 468.09C90.5278 470.283 90.4824 472.631 90.4824 475.135C90.4824 477.652 90.5278 480.007 90.6186 482.199H83.6518L78.9424 471.574L79.2927 482.199H74.2914C74.3952 479.682 74.4471 477.328 74.4471 475.135C74.4471 472.956 74.3952 470.607 74.2914 468.09H81.4528L86.1816 479.008L85.8508 468.09H90.6186ZM111.249 471.71H100.663V473.753C101.324 473.766 102.317 473.773 103.64 473.773C105.924 473.773 108.246 473.734 110.607 473.656V477.47C108.246 477.38 105.755 477.334 103.134 477.334C102.045 477.334 101.221 477.341 100.663 477.354V482.199H96.0702C96.174 479.682 96.2259 477.328 96.2259 475.135C96.2259 472.943 96.174 470.588 96.0702 468.071H111.249V471.71ZM128.44 472.78C128.44 473.909 128.161 474.863 127.603 475.641C127.058 476.42 126.117 476.984 124.781 477.334C124.937 477.542 125.047 477.704 125.112 477.821L128.264 482.199H122.971C122.4 481.135 121.499 479.63 120.266 477.684H117.406V482.199H112.813C112.917 479.682 112.969 477.328 112.969 475.135C112.969 472.943 112.917 470.588 112.813 468.071H117.406V468.09H121.395C124.016 468.09 125.845 468.512 126.883 469.355C127.921 470.199 128.44 471.34 128.44 472.78ZM117.406 471.827V474.045H120.033C121.135 474.045 121.966 474.013 122.524 473.948C123.094 473.87 123.49 473.753 123.711 473.598C123.931 473.442 124.042 473.215 124.042 472.917C124.042 472.631 123.938 472.411 123.73 472.255C123.523 472.099 123.133 471.989 122.563 471.924C121.992 471.859 121.148 471.827 120.033 471.827H117.406ZM138.653 482.394C135.682 482.394 133.496 481.752 132.094 480.467C130.693 479.17 129.993 477.354 129.993 475.018C129.993 472.709 130.687 470.906 132.075 469.608C133.476 468.311 135.669 467.662 138.653 467.662C141.649 467.662 143.842 468.311 145.23 469.608C146.631 470.906 147.332 472.709 147.332 475.018C147.332 477.367 146.638 479.183 145.25 480.467C143.861 481.752 141.662 482.394 138.653 482.394ZM138.653 478.424C140.093 478.424 141.13 478.151 141.766 477.607C142.402 477.049 142.72 476.186 142.72 475.018C142.72 473.877 142.402 473.027 141.766 472.469C141.13 471.911 140.093 471.632 138.653 471.632C137.225 471.632 136.194 471.911 135.558 472.469C134.923 473.027 134.605 473.877 134.605 475.018C134.605 476.173 134.923 477.029 135.558 477.587C136.194 478.145 137.225 478.424 138.653 478.424ZM156.901 474.143H165.21V482.199H161.785L161.376 478.755C160.987 479.987 160.293 480.902 159.294 481.499C158.295 482.095 157.076 482.394 155.636 482.394C154.325 482.394 153.158 482.102 152.133 481.518C151.121 480.934 150.323 480.098 149.739 479.008C149.168 477.918 148.883 476.647 148.883 475.194C148.883 472.871 149.577 471.035 150.965 469.686C152.353 468.337 154.513 467.662 157.445 467.662C159.119 467.662 160.592 467.935 161.863 468.48C163.147 469.025 164.237 469.868 165.132 471.01C164.548 471.308 163.407 471.905 161.707 472.8L161.221 473.072C160.715 472.566 160.124 472.19 159.45 471.944C158.775 471.684 158.062 471.554 157.309 471.554C156.064 471.554 155.136 471.885 154.526 472.547C153.917 473.196 153.612 474 153.612 474.96C153.612 475.998 153.936 476.835 154.585 477.47C155.246 478.106 156.252 478.424 157.601 478.424C158.185 478.424 158.749 478.34 159.294 478.171C159.852 478.002 160.319 477.71 160.695 477.295H156.901V474.143ZM166.766 480.526C167.207 479.864 167.57 479.248 167.856 478.677C168.154 478.106 168.439 477.444 168.712 476.692C169.633 477.224 170.703 477.639 171.923 477.937C173.142 478.236 174.278 478.385 175.328 478.385C176.405 478.385 177.164 478.294 177.605 478.113C178.046 477.918 178.267 477.71 178.267 477.49C178.267 476.698 177.06 476.303 174.647 476.303C172.001 476.303 170.081 476.03 168.887 475.485C167.693 474.928 167.097 474.032 167.097 472.8C167.097 471.048 167.823 469.758 169.276 468.927C170.729 468.097 172.617 467.682 174.939 467.682C176.288 467.682 177.67 467.857 179.084 468.207C180.511 468.545 181.796 469.012 182.937 469.608C182.561 470.465 182.165 471.509 181.75 472.742C181.672 473.001 181.608 473.196 181.556 473.325C180.894 472.793 179.895 472.352 178.559 472.002C177.223 471.639 176.042 471.457 175.017 471.457C173.785 471.457 172.954 471.541 172.526 471.71C172.098 471.866 171.884 472.099 171.884 472.411C171.884 472.722 172.176 472.975 172.76 473.17C173.356 473.351 174.213 473.442 175.328 473.442C178.079 473.442 180.077 473.76 181.322 474.396C182.568 475.018 183.19 475.978 183.19 477.276C183.19 479.092 182.529 480.402 181.205 481.207C179.882 481.998 177.878 482.394 175.192 482.394C173.752 482.394 172.286 482.238 170.794 481.927C169.302 481.602 167.959 481.135 166.766 480.526Z" fill="white"/>
<g filter="url(#filter1_b_429_322)">
<rect x="338.25" y="493.044" width="37.1515" height="37.1515" rx="18.5757" transform="rotate(180 338.25 493.044)" fill="url(#paint5_linear_429_322)"/>
</g>
<path fill-rule="evenodd" clip-rule="evenodd" d="M325.332 467.503H313.974C313.54 467.503 313.178 467.575 312.744 467.793C312.238 468.01 311.948 468.372 311.804 468.662C311.804 468.662 311.804 468.734 311.731 468.734C311.514 469.096 311.37 469.531 311.37 470.038C311.37 470.472 311.442 470.907 311.731 471.341L318.893 483.654C319.038 483.944 319.327 484.088 319.689 484.088C319.978 484.088 320.268 483.944 320.485 483.654L327.502 471.341C327.647 471.052 327.936 470.69 327.936 470.11C328.009 469.603 327.864 469.169 327.647 468.734C327.43 468.3 327.068 467.937 326.562 467.793C326.128 467.503 325.621 467.503 325.332 467.503ZM320.557 469.241H325.332C325.621 469.241 325.766 469.241 325.838 469.314C325.983 469.386 326.055 469.458 326.128 469.603C326.2 469.676 326.2 469.821 326.2 469.965C326.2 470.038 326.128 470.11 325.983 470.4L320.557 479.815V469.241ZM318.821 469.241V479.888L313.323 470.4C313.251 470.255 313.251 470.11 313.251 469.965C313.251 469.821 313.251 469.676 313.323 469.603C313.395 469.531 313.395 469.458 313.468 469.458L313.54 469.386C313.685 469.314 313.829 469.314 314.046 469.314H318.821V469.241Z" fill="white"/>
<defs>
<filter id="filter0_b_429_322" x="-32.0782" y="-33.0889" width="438.08" height="585.251" filterUnits="userSpaceOnUse" color-interpolation-filters="sRGB">
<feFlood flood-opacity="0" result="BackgroundImageFix"/>
<feGaussianBlur in="BackgroundImage" stdDeviation="16.7422"/>
<feComposite in2="SourceAlpha" operator="in" result="effect1_backgroundBlur_429_322"/>
<feBlend mode="normal" in="SourceGraphic" in2="effect1_backgroundBlur_429_322" result="shape"/>
</filter>
<filter id="filter1_b_429_322" x="212.642" y="367.437" width="214.064" height="214.063" filterUnits="userSpaceOnUse" color-interpolation-filters="sRGB">
<feFlood flood-opacity="0" result="BackgroundImageFix"/>
<feGaussianBlur in="BackgroundImage" stdDeviation="44.228"/>
<feComposite in2="SourceAlpha" operator="in" result="effect1_backgroundBlur_429_322"/>
<feBlend mode="normal" in="SourceGraphic" in2="effect1_backgroundBlur_429_322" result="shape"/>
</filter>
<radialGradient id="paint0_diamond_429_322" cx="0" cy="0" r="1" gradientUnits="userSpaceOnUse" gradientTransform="translate(186.962 259.537) rotate(54.4623) scale(316.5 226.071)">
<stop stop-color="#CDCDCD"/>
<stop offset="1" stop-color="#ABABAB" stop-opacity="0"/>
</radialGradient>
<radialGradient id="paint1_radial_429_322" cx="0" cy="0" r="1" gradientUnits="userSpaceOnUse" gradientTransform="translate(186.962 259.537) rotate(-123.28) scale(427.778 305.555)">
<stop stop-color="white"/>
<stop offset="1" stop-color="white" stop-opacity="0"/>
</radialGradient>
<radialGradient id="paint2_radial_429_322" cx="0" cy="0" r="1" gradientUnits="userSpaceOnUse" gradientTransform="translate(186.962 259.537) rotate(50.2726) scale(345.394 246.71)">
<stop stop-color="#0085FF"/>
<stop offset="1" stop-color="#0085FF" stop-opacity="0"/>
</radialGradient>
<radialGradient id="paint3_radial_429_322" cx="0" cy="0" r="1" gradientUnits="userSpaceOnUse" gradientTransform="translate(186.962 259.537) rotate(126.448) scale(339.382 242.416)">
<stop stop-color="#151515"/>
<stop offset="1" stop-color="#151515" stop-opacity="0"/>
</radialGradient>
<linearGradient id="paint4_linear_429_322" x1="738.849" y1="559.646" x2="370.926" y2="559.646" gradientUnits="userSpaceOnUse">
<stop stop-color="#0085FF"/>
<stop offset="1" stop-color="#36F5FF"/>
</linearGradient>
<linearGradient id="paint5_linear_429_322" x1="360.309" y1="506.976" x2="346.377" y2="530.195" gradientUnits="userSpaceOnUse">
<stop stop-color="#00050A"/>
<stop offset="1" stop-color="#4D4D4D"/>
</linearGradient>
</defs>
</svg>
