<svg width="371" height="516" viewBox="0 0 371 516" fill="none" xmlns="http://www.w3.org/2000/svg">
<g filter="url(#filter0_b_429_313)">
<rect x="3" y="1.63086" width="364.977" height="510.967" rx="12.6538" fill="url(#paint0_diamond_429_313)" fill-opacity="0.5"/>
<rect x="2.20914" y="0.839995" width="366.559" height="512.549" rx="13.4447" stroke="url(#paint1_radial_429_313)" stroke-width="1.58173"/>
<rect x="2.20914" y="0.839995" width="366.559" height="512.549" rx="13.4447" stroke="url(#paint2_radial_429_313)" stroke-opacity="0.5" stroke-width="1.58173"/>
<rect x="2.20914" y="0.839995" width="366.559" height="512.549" rx="13.4447" stroke="url(#paint3_radial_429_313)" stroke-width="1.58173"/>
</g>
<rect opacity="0.7" x="369.293" y="513.825" width="367.609" height="87.2549" rx="13.97" transform="rotate(-180 369.293 513.825)" fill="#08121A" stroke="url(#paint4_linear_429_313)" stroke-width="2.63243"/>
<path d="M54.5774 468.201C52.5568 468.137 50.5942 468.098 48.6895 468.085V478.162H43.8634V468.085C41.9458 468.098 39.9896 468.137 37.9948 468.201V464.147H54.5774V468.201ZM63.571 478.355C60.6238 478.355 58.4553 477.718 57.0654 476.444C55.6755 475.157 54.9805 473.355 54.9805 471.039C54.9805 468.748 55.669 466.959 57.0461 465.672C58.436 464.385 60.611 463.742 63.571 463.742C66.5439 463.742 68.7188 464.385 70.0959 465.672C71.4858 466.959 72.1808 468.748 72.1808 471.039C72.1808 473.368 71.4922 475.17 70.1152 476.444C68.7381 477.718 66.5567 478.355 63.571 478.355ZM63.571 474.417C64.9995 474.417 66.0291 474.147 66.6597 473.606C67.2903 473.053 67.6056 472.197 67.6056 471.039C67.6056 469.906 67.2903 469.063 66.6597 468.51C66.0291 467.956 64.9995 467.68 63.571 467.68C62.1553 467.68 61.1322 467.956 60.5016 468.51C59.871 469.063 59.5556 469.906 59.5556 471.039C59.5556 472.184 59.871 473.034 60.5016 473.587C61.1322 474.14 62.1553 474.417 63.571 474.417ZM89.9158 464.166C89.8257 466.341 89.7807 468.671 89.7807 471.155C89.7807 473.651 89.8257 475.987 89.9158 478.162H83.0048L78.3332 467.622L78.6806 478.162H73.7194C73.8223 475.665 73.8738 473.33 73.8738 471.155C73.8738 468.992 73.8223 466.663 73.7194 464.166H80.8234L85.5144 474.996L85.1862 464.166H89.9158ZM110.381 467.757H99.8796V469.784C100.536 469.797 101.521 469.803 102.833 469.803C105.098 469.803 107.402 469.765 109.744 469.687V473.471C107.402 473.381 104.931 473.336 102.331 473.336C101.25 473.336 100.433 473.342 99.8796 473.355V478.162H95.3238C95.4267 475.665 95.4782 473.33 95.4782 471.155C95.4782 468.98 95.4267 466.644 95.3238 464.147H110.381V467.757ZM127.434 468.819C127.434 469.938 127.157 470.884 126.604 471.657C126.063 472.429 125.13 472.989 123.805 473.336C123.959 473.542 124.068 473.703 124.133 473.819L127.26 478.162H122.009C121.443 477.107 120.549 475.614 119.326 473.683H116.488V478.162H111.932C112.035 475.665 112.087 473.33 112.087 471.155C112.087 468.98 112.035 466.644 111.932 464.147H116.488V464.166H120.446C123.045 464.166 124.86 464.585 125.89 465.421C126.919 466.258 127.434 467.39 127.434 468.819ZM116.488 467.873V470.074H119.094C120.188 470.074 121.012 470.041 121.565 469.977C122.132 469.9 122.524 469.784 122.743 469.63C122.962 469.475 123.071 469.25 123.071 468.954C123.071 468.671 122.968 468.452 122.762 468.298C122.556 468.143 122.17 468.034 121.604 467.969C121.038 467.905 120.201 467.873 119.094 467.873H116.488ZM137.565 478.355C134.618 478.355 132.449 477.718 131.059 476.444C129.67 475.157 128.975 473.355 128.975 471.039C128.975 468.748 129.663 466.959 131.04 465.672C132.43 464.385 134.605 463.742 137.565 463.742C140.538 463.742 142.713 464.385 144.09 465.672C145.48 466.959 146.175 468.748 146.175 471.039C146.175 473.368 145.486 475.17 144.109 476.444C142.732 477.718 140.551 478.355 137.565 478.355ZM137.565 474.417C138.994 474.417 140.023 474.147 140.654 473.606C141.284 473.053 141.6 472.197 141.6 471.039C141.6 469.906 141.284 469.063 140.654 468.51C140.023 467.956 138.994 467.68 137.565 467.68C136.149 467.68 135.126 467.956 134.496 468.51C133.865 469.063 133.55 469.906 133.55 471.039C133.55 472.184 133.865 473.034 134.496 473.587C135.126 474.14 136.149 474.417 137.565 474.417ZM155.667 470.17H163.91V478.162H160.512L160.107 474.745C159.721 475.968 159.032 476.875 158.041 477.467C157.05 478.059 155.841 478.355 154.412 478.355C153.112 478.355 151.954 478.066 150.937 477.486C149.934 476.907 149.142 476.077 148.563 474.996C147.997 473.915 147.714 472.654 147.714 471.213C147.714 468.909 148.402 467.088 149.779 465.749C151.156 464.411 153.299 463.742 156.207 463.742C157.868 463.742 159.328 464.012 160.59 464.552C161.864 465.093 162.945 465.93 163.833 467.062C163.254 467.358 162.121 467.95 160.435 468.838L159.953 469.108C159.451 468.606 158.865 468.233 158.196 467.989C157.527 467.731 156.819 467.603 156.072 467.603C154.837 467.603 153.917 467.931 153.312 468.587C152.707 469.231 152.404 470.028 152.404 470.981C152.404 472.01 152.726 472.841 153.37 473.471C154.026 474.102 155.023 474.417 156.362 474.417C156.941 474.417 157.501 474.333 158.041 474.166C158.595 473.999 159.058 473.709 159.431 473.297H155.667V470.17ZM165.453 476.502C165.891 475.846 166.251 475.234 166.534 474.668C166.83 474.102 167.113 473.445 167.384 472.699C168.297 473.227 169.359 473.638 170.569 473.934C171.779 474.23 172.905 474.378 173.947 474.378C175.015 474.378 175.768 474.288 176.206 474.108C176.643 473.915 176.862 473.709 176.862 473.49C176.862 472.705 175.665 472.313 173.272 472.313C170.646 472.313 168.741 472.043 167.557 471.502C166.373 470.949 165.781 470.061 165.781 468.838C165.781 467.101 166.502 465.82 167.944 464.996C169.385 464.173 171.257 463.761 173.561 463.761C174.9 463.761 176.27 463.935 177.673 464.282C179.089 464.617 180.363 465.08 181.495 465.672C181.122 466.522 180.73 467.558 180.318 468.78C180.24 469.038 180.176 469.231 180.125 469.359C179.468 468.832 178.477 468.394 177.152 468.047C175.826 467.686 174.655 467.506 173.638 467.506C172.416 467.506 171.592 467.59 171.167 467.757C170.743 467.911 170.53 468.143 170.53 468.452C170.53 468.761 170.82 469.012 171.399 469.205C171.991 469.385 172.84 469.475 173.947 469.475C176.676 469.475 178.658 469.79 179.893 470.421C181.128 471.039 181.746 471.991 181.746 473.278C181.746 475.08 181.09 476.38 179.777 477.178C178.464 477.963 176.476 478.355 173.812 478.355C172.384 478.355 170.929 478.201 169.449 477.892C167.969 477.57 166.637 477.107 165.453 476.502Z" fill="white"/>
<g filter="url(#filter1_b_429_313)">
<rect x="335.564" y="486.995" width="36.854" height="36.854" rx="18.427" transform="rotate(180 335.564 486.995)" fill="url(#paint5_linear_429_313)"/>
</g>
<path fill-rule="evenodd" clip-rule="evenodd" d="M322.749 460.781H311.482C311.052 460.781 310.693 460.853 310.262 461.069C309.76 461.284 309.473 461.643 309.329 461.931C309.329 461.931 309.329 462.003 309.258 462.003C309.042 462.362 308.899 462.793 308.899 463.296C308.899 463.727 308.971 464.158 309.258 464.589L316.362 476.803C316.506 477.09 316.793 477.234 317.152 477.234C317.439 477.234 317.726 477.09 317.941 476.803L324.902 464.589C325.046 464.302 325.333 463.942 325.333 463.368C325.405 462.865 325.261 462.434 325.046 462.003C324.831 461.572 324.472 461.212 323.969 461.069C323.539 460.781 323.036 460.781 322.749 460.781ZM318.013 462.506H322.749C323.036 462.506 323.18 462.506 323.252 462.577C323.395 462.649 323.467 462.721 323.539 462.865C323.611 462.937 323.611 463.08 323.611 463.224C323.611 463.296 323.539 463.368 323.395 463.655L318.013 472.995V462.506ZM316.291 462.506V473.067L310.837 463.655C310.765 463.511 310.765 463.368 310.765 463.224C310.765 463.08 310.765 462.937 310.837 462.865C310.908 462.793 310.908 462.721 310.98 462.721L311.052 462.649C311.195 462.577 311.339 462.577 311.554 462.577H316.291V462.506Z" fill="white"/>
<defs>
<filter id="filter0_b_429_313" x="-31.7983" y="-33.1675" width="434.573" height="580.563" filterUnits="userSpaceOnUse" color-interpolation-filters="sRGB">
<feFlood flood-opacity="0" result="BackgroundImageFix"/>
<feGaussianBlur in="BackgroundImage" stdDeviation="16.6081"/>
<feComposite in2="SourceAlpha" operator="in" result="effect1_backgroundBlur_429_313"/>
<feBlend mode="normal" in="SourceGraphic" in2="effect1_backgroundBlur_429_313" result="shape"/>
</filter>
<filter id="filter1_b_429_313" x="210.963" y="362.394" width="212.349" height="212.349" filterUnits="userSpaceOnUse" color-interpolation-filters="sRGB">
<feFlood flood-opacity="0" result="BackgroundImageFix"/>
<feGaussianBlur in="BackgroundImage" stdDeviation="43.8738"/>
<feComposite in2="SourceAlpha" operator="in" result="effect1_backgroundBlur_429_313"/>
<feBlend mode="normal" in="SourceGraphic" in2="effect1_backgroundBlur_429_313" result="shape"/>
</filter>
<radialGradient id="paint0_diamond_429_313" cx="0" cy="0" r="1" gradientUnits="userSpaceOnUse" gradientTransform="translate(185.488 257.115) rotate(54.4623) scale(313.965 224.261)">
<stop stop-color="#E88571"/>
<stop offset="1" stop-color="#E7A99C" stop-opacity="0"/>
</radialGradient>
<radialGradient id="paint1_radial_429_313" cx="0" cy="0" r="1" gradientUnits="userSpaceOnUse" gradientTransform="translate(185.488 257.115) rotate(-123.28) scale(424.352 303.108)">
<stop stop-color="white"/>
<stop offset="1" stop-color="white" stop-opacity="0"/>
</radialGradient>
<radialGradient id="paint2_radial_429_313" cx="0" cy="0" r="1" gradientUnits="userSpaceOnUse" gradientTransform="translate(185.488 257.115) rotate(50.2726) scale(342.628 244.734)">
<stop stop-color="#0085FF"/>
<stop offset="1" stop-color="#0085FF" stop-opacity="0"/>
</radialGradient>
<radialGradient id="paint3_radial_429_313" cx="0" cy="0" r="1" gradientUnits="userSpaceOnUse" gradientTransform="translate(185.488 257.115) rotate(126.448) scale(336.664 240.474)">
<stop stop-color="#151515"/>
<stop offset="1" stop-color="#151515" stop-opacity="0"/>
</radialGradient>
<linearGradient id="paint4_linear_429_313" x1="732.953" y1="554.82" x2="367.977" y2="554.82" gradientUnits="userSpaceOnUse">
<stop stop-color="#0085FF"/>
<stop offset="1" stop-color="#36F5FF"/>
</linearGradient>
<linearGradient id="paint5_linear_429_313" x1="357.446" y1="500.815" x2="343.626" y2="523.849" gradientUnits="userSpaceOnUse">
<stop stop-color="#00050A"/>
<stop offset="1" stop-color="#4D4D4D"/>
</linearGradient>
</defs>
</svg>
