<svg width="373" height="518" viewBox="0 0 373 518" fill="none" xmlns="http://www.w3.org/2000/svg">
<g filter="url(#filter0_b_429_331)">
<rect x="369.562" y="515.156" width="366.658" height="513.321" rx="12.7121" transform="rotate(-180 369.562 515.156)" fill="url(#paint0_diamond_429_331)" fill-opacity="0.5"/>
<rect x="370.357" y="515.951" width="368.247" height="514.91" rx="13.5066" transform="rotate(-180 370.357 515.951)" stroke="url(#paint1_radial_429_331)" stroke-width="1.58901"/>
<rect x="370.357" y="515.951" width="368.247" height="514.91" rx="13.5066" transform="rotate(-180 370.357 515.951)" stroke="url(#paint2_radial_429_331)" stroke-opacity="0.5" stroke-width="1.58901"/>
<rect x="370.357" y="515.951" width="368.247" height="514.91" rx="13.5066" transform="rotate(-180 370.357 515.951)" stroke="url(#paint3_radial_429_331)" stroke-width="1.58901"/>
</g>
<rect opacity="0.7" x="370.887" y="516.39" width="369.302" height="87.6567" rx="14.0344" transform="rotate(-180 370.887 516.39)" fill="#08121A" stroke="url(#paint4_linear_429_331)" stroke-width="2.64455"/>
<path d="M54.7198 470.458C52.69 470.393 50.7183 470.354 48.8048 470.342V480.465H43.9565V470.342C42.0301 470.354 40.0649 470.393 38.0609 470.458V466.385H54.7198V470.458ZM63.7548 480.659C60.7941 480.659 58.6156 480.019 57.2193 478.739C55.8229 477.446 55.1248 475.636 55.1248 473.309C55.1248 471.007 55.8165 469.21 57.1999 467.917C58.5962 466.624 60.7812 465.978 63.7548 465.978C66.7414 465.978 68.9264 466.624 70.3098 467.917C71.7061 469.21 72.4043 471.007 72.4043 473.309C72.4043 475.649 71.7126 477.459 70.3292 478.739C68.9458 480.019 66.7543 480.659 63.7548 480.659ZM63.7548 476.703C65.1899 476.703 66.2242 476.431 66.8578 475.888C67.4913 475.332 67.808 474.472 67.808 473.309C67.808 472.171 67.4913 471.324 66.8578 470.768C66.2242 470.212 65.1899 469.934 63.7548 469.934C62.3326 469.934 61.3048 470.212 60.6713 470.768C60.0378 471.324 59.721 472.171 59.721 473.309C59.721 474.459 60.0378 475.313 60.6713 475.869C61.3048 476.425 62.3326 476.703 63.7548 476.703ZM90.221 466.405C90.1305 468.59 90.0853 470.93 90.0853 473.425C90.0853 475.933 90.1305 478.28 90.221 480.465H83.2782L78.585 469.876L78.9341 480.465H73.95C74.0534 477.957 74.1051 475.61 74.1051 473.425C74.1051 471.253 74.0534 468.913 73.95 466.405H81.0867L85.7993 477.284L85.4696 466.405H90.221ZM110.781 470.012H100.231V472.048C100.89 472.061 101.879 472.068 103.198 472.068C105.473 472.068 107.788 472.029 110.141 471.951V475.752C107.788 475.662 105.305 475.617 102.694 475.617C101.608 475.617 100.787 475.623 100.231 475.636V480.465H95.6539C95.7573 477.957 95.809 475.61 95.809 473.425C95.809 471.24 95.7573 468.893 95.6539 466.385H110.781V470.012ZM127.912 471.078C127.912 472.203 127.634 473.154 127.078 473.929C126.535 474.705 125.598 475.267 124.266 475.617C124.421 475.823 124.531 475.985 124.596 476.101L127.737 480.465H122.462C121.893 479.405 120.995 477.905 119.767 475.966H116.916V480.465H112.339C112.442 477.957 112.494 475.61 112.494 473.425C112.494 471.24 112.442 468.893 112.339 466.385H116.916V466.405H120.891C123.503 466.405 125.326 466.825 126.36 467.665C127.395 468.506 127.912 469.643 127.912 471.078ZM116.916 470.128V472.339H119.534C120.633 472.339 121.46 472.307 122.016 472.242C122.585 472.164 122.979 472.048 123.199 471.893C123.419 471.738 123.529 471.512 123.529 471.214C123.529 470.93 123.426 470.71 123.219 470.555C123.012 470.4 122.624 470.29 122.055 470.225C121.486 470.161 120.646 470.128 119.534 470.128H116.916ZM138.09 480.659C135.129 480.659 132.951 480.019 131.554 478.739C130.158 477.446 129.46 475.636 129.46 473.309C129.46 471.007 130.151 469.21 131.535 467.917C132.931 466.624 135.116 465.978 138.09 465.978C141.076 465.978 143.261 466.624 144.645 467.917C146.041 469.21 146.739 471.007 146.739 473.309C146.739 475.649 146.047 477.459 144.664 478.739C143.281 480.019 141.089 480.659 138.09 480.659ZM138.09 476.703C139.525 476.703 140.559 476.431 141.193 475.888C141.826 475.332 142.143 474.472 142.143 473.309C142.143 472.171 141.826 471.324 141.193 470.768C140.559 470.212 139.525 469.934 138.09 469.934C136.668 469.934 135.64 470.212 135.006 470.768C134.373 471.324 134.056 472.171 134.056 473.309C134.056 474.459 134.373 475.313 135.006 475.869C135.64 476.425 136.668 476.703 138.09 476.703ZM156.275 472.436H164.556V480.465H161.143L160.735 477.032C160.348 478.26 159.656 479.172 158.66 479.767C157.665 480.361 156.45 480.659 155.014 480.659C153.709 480.659 152.545 480.368 151.524 479.786C150.515 479.204 149.72 478.37 149.138 477.284C148.569 476.198 148.285 474.931 148.285 473.483C148.285 471.169 148.977 469.34 150.36 467.995C151.743 466.65 153.896 465.978 156.818 465.978C158.486 465.978 159.953 466.25 161.22 466.793C162.5 467.336 163.586 468.176 164.478 469.314C163.897 469.611 162.759 470.206 161.065 471.098L160.58 471.369C160.076 470.865 159.488 470.49 158.815 470.245C158.143 469.986 157.432 469.857 156.682 469.857C155.441 469.857 154.517 470.186 153.909 470.846C153.301 471.492 152.997 472.294 152.997 473.251C152.997 474.285 153.321 475.119 153.967 475.752C154.627 476.386 155.629 476.703 156.973 476.703C157.555 476.703 158.117 476.618 158.66 476.45C159.216 476.282 159.682 475.991 160.057 475.578H156.275V472.436ZM166.106 478.797C166.546 478.138 166.908 477.524 167.192 476.955C167.49 476.386 167.774 475.726 168.046 474.977C168.964 475.507 170.03 475.92 171.246 476.218C172.461 476.515 173.592 476.664 174.639 476.664C175.713 476.664 176.469 476.573 176.908 476.392C177.348 476.198 177.568 475.991 177.568 475.772C177.568 474.983 176.365 474.589 173.961 474.589C171.323 474.589 169.41 474.317 168.22 473.774C167.031 473.218 166.436 472.326 166.436 471.098C166.436 469.352 167.16 468.066 168.608 467.239C170.056 466.411 171.937 465.997 174.252 465.997C175.596 465.997 176.973 466.172 178.382 466.521C179.805 466.857 181.084 467.323 182.222 467.917C181.847 468.771 181.453 469.811 181.039 471.04C180.962 471.298 180.897 471.492 180.845 471.621C180.186 471.091 179.19 470.652 177.859 470.303C176.527 469.941 175.351 469.76 174.329 469.76C173.101 469.76 172.273 469.844 171.847 470.012C171.42 470.167 171.207 470.4 171.207 470.71C171.207 471.02 171.498 471.272 172.079 471.466C172.674 471.647 173.528 471.738 174.639 471.738C177.38 471.738 179.371 472.055 180.613 472.688C181.854 473.309 182.474 474.265 182.474 475.558C182.474 477.368 181.815 478.674 180.496 479.476C179.177 480.264 177.18 480.659 174.504 480.659C173.069 480.659 171.608 480.504 170.121 480.193C168.634 479.87 167.296 479.405 166.106 478.797Z" fill="white"/>
<g filter="url(#filter1_b_429_331)">
<rect x="336.119" y="491.197" width="37.0237" height="37.0237" rx="18.5118" transform="rotate(180 336.119 491.197)" fill="url(#paint5_linear_429_331)"/>
</g>
<path fill-rule="evenodd" clip-rule="evenodd" d="M323.243 465.744H311.924C311.492 465.744 311.131 465.816 310.699 466.033C310.194 466.249 309.906 466.61 309.762 466.899C309.762 466.899 309.762 466.971 309.689 466.971C309.473 467.332 309.329 467.765 309.329 468.27C309.329 468.703 309.401 469.136 309.689 469.569L316.827 481.84C316.971 482.128 317.259 482.273 317.62 482.273C317.908 482.273 318.197 482.128 318.413 481.84L325.406 469.569C325.55 469.281 325.839 468.92 325.839 468.342C325.911 467.837 325.767 467.404 325.55 466.971C325.334 466.538 324.974 466.177 324.469 466.033C324.036 465.744 323.532 465.744 323.243 465.744ZM318.485 467.476H323.243C323.532 467.476 323.676 467.476 323.748 467.549C323.892 467.621 323.964 467.693 324.036 467.837C324.108 467.909 324.108 468.054 324.108 468.198C324.108 468.27 324.036 468.342 323.892 468.631L318.485 478.014V467.476ZM316.755 467.476V478.086L311.276 468.631C311.203 468.487 311.203 468.342 311.203 468.198C311.203 468.054 311.203 467.909 311.276 467.837C311.348 467.765 311.348 467.693 311.42 467.693L311.492 467.621C311.636 467.549 311.78 467.549 311.996 467.549H316.755V467.476Z" fill="white"/>
<defs>
<filter id="filter0_b_429_331" x="-32.0529" y="-33.1232" width="436.574" height="583.238" filterUnits="userSpaceOnUse" color-interpolation-filters="sRGB">
<feFlood flood-opacity="0" result="BackgroundImageFix"/>
<feGaussianBlur in="BackgroundImage" stdDeviation="16.6846"/>
<feComposite in2="SourceAlpha" operator="in" result="effect1_backgroundBlur_429_331"/>
<feBlend mode="normal" in="SourceGraphic" in2="effect1_backgroundBlur_429_331" result="shape"/>
</filter>
<filter id="filter1_b_429_331" x="210.944" y="366.022" width="213.327" height="213.327" filterUnits="userSpaceOnUse" color-interpolation-filters="sRGB">
<feFlood flood-opacity="0" result="BackgroundImageFix"/>
<feGaussianBlur in="BackgroundImage" stdDeviation="44.0758"/>
<feComposite in2="SourceAlpha" operator="in" result="effect1_backgroundBlur_429_331"/>
<feBlend mode="normal" in="SourceGraphic" in2="effect1_backgroundBlur_429_331" result="shape"/>
</filter>
<radialGradient id="paint0_diamond_429_331" cx="0" cy="0" r="1" gradientUnits="userSpaceOnUse" gradientTransform="translate(552.891 771.817) rotate(54.4623) scale(315.411 225.293)">
<stop stop-color="#D79314"/>
<stop offset="1" stop-color="#D79314" stop-opacity="0"/>
</radialGradient>
<radialGradient id="paint1_radial_429_331" cx="0" cy="0" r="1" gradientUnits="userSpaceOnUse" gradientTransform="translate(552.891 771.817) rotate(-123.28) scale(426.306 304.504)">
<stop stop-color="white"/>
<stop offset="1" stop-color="white" stop-opacity="0"/>
</radialGradient>
<radialGradient id="paint2_radial_429_331" cx="0" cy="0" r="1" gradientUnits="userSpaceOnUse" gradientTransform="translate(552.891 771.817) rotate(50.2726) scale(344.206 245.862)">
<stop stop-color="#0085FF"/>
<stop offset="1" stop-color="#0085FF" stop-opacity="0"/>
</radialGradient>
<radialGradient id="paint3_radial_429_331" cx="0" cy="0" r="1" gradientUnits="userSpaceOnUse" gradientTransform="translate(552.891 771.817) rotate(126.448) scale(338.214 241.582)">
<stop stop-color="#151515"/>
<stop offset="1" stop-color="#151515" stop-opacity="0"/>
</radialGradient>
<linearGradient id="paint4_linear_429_331" x1="736.222" y1="557.573" x2="369.564" y2="557.573" gradientUnits="userSpaceOnUse">
<stop stop-color="#0085FF"/>
<stop offset="1" stop-color="#36F5FF"/>
</linearGradient>
<linearGradient id="paint5_linear_429_331" x1="358.102" y1="505.081" x2="344.218" y2="528.221" gradientUnits="userSpaceOnUse">
<stop stop-color="#00050A"/>
<stop offset="1" stop-color="#4D4D4D"/>
</linearGradient>
</defs>
</svg>
