<svg width="397" height="514" viewBox="0 0 397 514" fill="none" xmlns="http://www.w3.org/2000/svg">
<g filter="url(#filter0_di_601_138)">
<path fill-rule="evenodd" clip-rule="evenodd" d="M105.218 121H309.664C317.477 121 323.988 122.177 331.801 125.708C340.917 129.239 346.126 135.124 348.73 139.832C348.73 139.832 348.73 141.009 350.032 141.009C353.939 146.894 356.543 153.955 356.543 162.194C356.543 169.256 355.241 176.318 350.032 183.38L221.114 383.466C218.51 388.174 213.301 390.528 206.79 390.528C201.581 390.528 196.372 388.174 192.466 383.466L66.152 183.38C63.5476 178.672 58.3387 172.787 58.3387 163.371C57.0365 155.132 59.6409 148.07 63.5476 141.009C67.4542 133.947 73.9652 128.062 83.0806 125.708C90.8938 121 100.009 121 105.218 121ZM191.163 149.247H105.218C100.009 149.247 97.4048 149.247 96.1026 150.424C93.4982 151.601 92.196 152.778 90.8938 155.132C89.5916 156.309 89.5916 158.663 89.5916 161.017C89.5916 162.194 90.8938 163.371 93.4982 168.079L191.163 321.086V149.247ZM222.416 149.247V322.263L321.384 168.079C322.686 165.725 322.686 163.371 322.686 161.017C322.686 158.663 322.686 156.309 321.384 155.132C320.082 153.955 320.082 152.778 318.779 152.778L317.477 151.601C314.873 150.424 312.268 150.424 308.362 150.424H222.416V149.247Z" fill="white"/>
</g>
<g filter="url(#filter1_f_601_138)">
<path d="M349.73 139.809V139.573L349.605 139.348C346.902 134.461 341.529 128.411 332.188 124.785C324.245 121.199 317.598 120 309.664 120H105.218L105.161 120C99.99 120 90.7129 120 82.6898 124.776C73.3496 127.231 66.6749 133.29 62.6725 140.525C58.7354 147.642 56.0141 154.92 57.3389 163.45C57.3623 171.264 60.8819 176.817 63.5481 181.025C64.1954 182.046 64.7925 182.988 65.2769 183.864L65.2909 183.889L65.3064 183.914L191.62 384L191.655 384.055L191.696 384.104C195.783 389.03 201.269 391.528 206.79 391.528C213.513 391.528 219.129 389.091 221.973 383.98L350.856 183.948C356.213 176.673 357.543 169.389 357.543 162.194C357.543 153.733 354.866 146.481 350.865 140.456L350.569 140.009H350.032C349.862 140.009 349.802 139.972 349.796 139.968C349.788 139.963 349.78 139.957 349.768 139.936C349.753 139.909 349.741 139.872 349.734 139.834C349.732 139.823 349.731 139.815 349.73 139.809ZM96.5145 151.336L96.6571 151.271L96.7732 151.166C97.1757 150.802 97.8767 150.532 99.2953 150.39C100.698 150.249 102.592 150.247 105.218 150.247H190.163V317.661L94.358 167.567C93.2481 165.563 92.3682 164.186 91.7351 163.195C91.6197 163.014 91.5124 162.846 91.4135 162.69C91.086 162.172 90.8746 161.817 90.7423 161.533C90.6157 161.261 90.5916 161.116 90.5916 161.017C90.5916 159.82 90.594 158.727 90.7421 157.79C90.891 156.848 91.1633 156.237 91.5644 155.874L91.6881 155.762L91.7689 155.616C92.3845 154.503 92.9722 153.719 93.6804 153.079C94.3914 152.436 95.2684 151.899 96.5145 151.336ZM318.109 153.52L318.395 153.778H318.779C318.94 153.778 318.994 153.811 319.018 153.826C319.064 153.855 319.138 153.92 319.277 154.108C319.327 154.176 319.385 154.261 319.453 154.36C319.715 154.746 320.116 155.334 320.713 155.874C321.114 156.237 321.387 156.848 321.536 157.79C321.684 158.727 321.686 159.82 321.686 161.017C321.686 163.385 321.67 165.478 320.524 167.567L223.416 318.854V151.424H308.362C312.241 151.424 314.599 151.44 316.926 152.451L318.109 153.52Z" stroke="#0085FF" stroke-width="2"/>
</g>
<g filter="url(#filter2_b_601_138)">
<rect x="366.658" y="513.321" width="366.658" height="513.321" rx="12.7121" transform="rotate(-180 366.658 513.321)" fill="url(#paint0_diamond_601_138)" fill-opacity="0.5"/>
</g>
<defs>
<filter id="filter0_di_601_138" x="18" y="81" width="378.543" height="349.527" filterUnits="userSpaceOnUse" color-interpolation-filters="sRGB">
<feFlood flood-opacity="0" result="BackgroundImageFix"/>
<feColorMatrix in="SourceAlpha" type="matrix" values="0 0 0 0 0 0 0 0 0 0 0 0 0 0 0 0 0 0 127 0" result="hardAlpha"/>
<feOffset/>
<feGaussianBlur stdDeviation="20"/>
<feComposite in2="hardAlpha" operator="out"/>
<feColorMatrix type="matrix" values="0 0 0 0 0 0 0 0 0 0.52 0 0 0 0 1 0 0 0 1 0"/>
<feBlend mode="normal" in2="BackgroundImageFix" result="effect1_dropShadow_601_138"/>
<feBlend mode="normal" in="SourceGraphic" in2="effect1_dropShadow_601_138" result="shape"/>
<feColorMatrix in="SourceAlpha" type="matrix" values="0 0 0 0 0 0 0 0 0 0 0 0 0 0 0 0 0 0 127 0" result="hardAlpha"/>
<feOffset/>
<feGaussianBlur stdDeviation="7.5"/>
<feComposite in2="hardAlpha" operator="arithmetic" k2="-1" k3="1"/>
<feColorMatrix type="matrix" values="0 0 0 0 0 0 0 0 0 0.52 0 0 0 0 1 0 0 0 1 0"/>
<feBlend mode="normal" in2="shape" result="effect2_innerShadow_601_138"/>
</filter>
<filter id="filter1_f_601_138" x="55" y="118" width="304.543" height="275.527" filterUnits="userSpaceOnUse" color-interpolation-filters="sRGB">
<feFlood flood-opacity="0" result="BackgroundImageFix"/>
<feBlend mode="normal" in="SourceGraphic" in2="BackgroundImageFix" result="shape"/>
<feGaussianBlur stdDeviation="0.5" result="effect1_foregroundBlur_601_138"/>
</filter>
<filter id="filter2_b_601_138" x="-33.3693" y="-33.3693" width="433.397" height="580.06" filterUnits="userSpaceOnUse" color-interpolation-filters="sRGB">
<feFlood flood-opacity="0" result="BackgroundImageFix"/>
<feGaussianBlur in="BackgroundImage" stdDeviation="16.6846"/>
<feComposite in2="SourceAlpha" operator="in" result="effect1_backgroundBlur_601_138"/>
<feBlend mode="normal" in="SourceGraphic" in2="effect1_backgroundBlur_601_138" result="shape"/>
</filter>
<radialGradient id="paint0_diamond_601_138" cx="0" cy="0" r="1" gradientUnits="userSpaceOnUse" gradientTransform="translate(549.987 769.982) rotate(54.4623) scale(315.411 225.293)">
<stop stop-color="#D79314"/>
<stop offset="1" stop-color="#D79314" stop-opacity="0"/>
</radialGradient>
</defs>
</svg>
