<svg width="29" height="29" viewBox="0 0 29 29" fill="none" xmlns="http://www.w3.org/2000/svg">
<circle cx="14.0547" cy="14.0273" r="14" fill="#F8F8F8"/>
<path d="M22.2984 8.75345C21.6487 7.98107 20.4491 7.66602 18.1581 7.66602H9.84177C7.49834 7.66602 6.27841 8.0014 5.6311 8.82371C5 9.62546 5 10.8068 5 12.4418V15.558C5 18.7255 5.7488 20.3337 9.84177 20.3337H18.1581C20.1449 20.3337 21.2458 20.0557 21.958 19.3741C22.6884 18.6751 23 17.5338 23 15.558V12.4418C23 10.7175 22.9512 9.52925 22.2984 8.75345ZM16.5561 14.4301L12.7797 16.4038C12.6952 16.4479 12.6029 16.4698 12.5107 16.4698C12.4063 16.4698 12.3021 16.4417 12.2099 16.3859C12.0361 16.2806 11.9301 16.0923 11.9301 15.8892V11.9545C11.9301 11.7517 12.0359 11.5636 12.2092 11.4583C12.3827 11.3529 12.5984 11.3457 12.7783 11.4392L16.5547 13.4002C16.7469 13.4999 16.8675 13.6983 16.8678 13.9147C16.868 14.1313 16.7479 14.3299 16.5561 14.4301Z" fill="black"/>
</svg>
